# xmcd
#
# Track frame offsets: 
#        150
#        19168
#        38289
#        60931
#        82052
#        102520
#        120576
#        142049
#        155960
#        179914
#        202654
#        218786
#
# Disc length: 3190 seconds
#
# Revision: 0
# Processed by: cddbd v1.5.2PL0 Copyright (c) Steve Scherf et al.
# Submitted via: ExactAudioCopyFreeDBPlugin 1.0
#
DISCID=a60c740c
DTITLE=Wrinkle Neck Mules - Apprentice To Ghosts
DYEAR=2012
DGENRE=Country-Rock
TTITLE0=When The Wheels Touch Down
TTITLE1=Stone Above Your Head
TTITLE2=On Wounded Knee
TTITLE3=Apprentice To Ghosts
TTITLE4=Patience In The Shadows
TTITLE5=Double Blade
TTITLE6=Parting Of The Clouds
TTITLE7=Leaving Chattanooga
TTITLE8=Liberty Bell
TTITLE9=Banks Of The James
TTITLE10=Central Daylight Time
TTITLE11=Dry Your Eyes
EXTD=
EXTT0=
EXTT1=
EXTT2=
EXTT3=
EXTT4=
EXTT5=
EXTT6=
EXTT7=
EXTT8=
EXTT9=
EXTT10=
EXTT11=
PLAYORDER=
